solid
 facet normal -1.000000e+00  0.000000e+00 -0.000000e+00
   outer loop
     vertex  6.661338e-16 -8.963931e-03  9.959743e-02
     vertex  6.661338e-16  2.449294e-17  1.000000e-01
     vertex  6.661338e-16 -7.227949e-02  6.910626e-02
   endloop
 endfacet
 facet normal -1.000000e+00  0.000000e+00 -0.000000e+00
   outer loop
     vertex  6.661338e-16 -1.785569e-02  9.839296e-02
     vertex  6.661338e-16 -8.963931e-03  9.959743e-02
     vertex  6.661338e-16 -7.227949e-02  6.910626e-02
   endloop
 endfacet
 facet normal -1.000000e+00  0.000000e+00 -0.000000e+00
   outer loop
     vertex  6.661338e-16 -2.660368e-02  9.639629e-02
     vertex  6.661338e-16 -1.785569e-02  9.839296e-02
     vertex  6.661338e-16 -7.227949e-02  6.910626e-02
   endloop
 endfacet
 facet normal -1.000000e+00  0.000000e+00 -0.000000e+00
   outer loop
     vertex  6.661338e-16 -3.513748e-02  9.362349e-02
     vertex  6.661338e-16 -2.660368e-02  9.639629e-02
     vertex  6.661338e-16 -7.227949e-02  6.910626e-02
   endloop
 endfacet
 facet normal -1.000000e+00  0.000000e+00 -0.000000e+00
   outer loop
     vertex  6.661338e-16 -4.338837e-02  9.009689e-02
     vertex  6.661338e-16 -3.513748e-02  9.362349e-02
     vertex  6.661338e-16 -7.227949e-02  6.910626e-02
   endloop
 endfacet
 facet normal -1.000000e+00  0.000000e+00 -0.000000e+00
   outer loop
     vertex  6.661338e-16 -5.128993e-02  8.584488e-02
     vertex  6.661338e-16 -4.338837e-02  9.009689e-02
     vertex  6.661338e-16 -7.227949e-02  6.910626e-02
   endloop
 endfacet
 facet normal -1.000000e+00  0.000000e+00 -0.000000e+00
   outer loop
     vertex  6.661338e-16 -5.877853e-02  8.090170e-02
     vertex  6.661338e-16 -5.128993e-02  8.584488e-02
     vertex  6.661338e-16 -7.227949e-02  6.910626e-02
   endloop
 endfacet
 facet normal -1.000000e+00  0.000000e+00 -0.000000e+00
   outer loop
     vertex  6.661338e-16 -6.579387e-02  7.530715e-02
     vertex  6.661338e-16 -5.877853e-02  8.090170e-02
     vertex  6.661338e-16 -7.227949e-02  6.910626e-02
   endloop
 endfacet
 facet normal -1.000000e+00  0.000000e+00  0.000000e+00
   outer loop
     vertex  6.661338e-16 -8.345733e-02  5.508970e-02
     vertex  6.661338e-16 -7.818315e-02  6.234898e-02
     vertex  6.661338e-16 -7.227949e-02  6.910626e-02
   endloop
 endfacet
 facet normal -1.000000e+00  0.000000e+00  0.000000e+00
   outer loop
     vertex  6.661338e-16 -8.805955e-02  4.738687e-02
     vertex  6.661338e-16 -8.345733e-02  5.508970e-02
     vertex  6.661338e-16 -7.227949e-02  6.910626e-02
   endloop
 endfacet
 facet normal -1.000000e+00  0.000000e+00  0.000000e+00
   outer loop
     vertex  6.661338e-16 -9.195278e-02  3.930250e-02
     vertex  6.661338e-16 -8.805955e-02  4.738687e-02
     vertex  6.661338e-16 -7.227949e-02  6.910626e-02
   endloop
 endfacet
 facet normal -1.000000e+00  0.000000e+00  0.000000e+00
   outer loop
     vertex  6.661338e-16 -9.510565e-02  3.090170e-02
     vertex  6.661338e-16 -9.195278e-02  3.930250e-02
     vertex  6.661338e-16 -7.227949e-02  6.910626e-02
   endloop
 endfacet
 facet normal -1.000000e+00  0.000000e+00  0.000000e+00
   outer loop
     vertex  6.661338e-16 -9.749279e-02  2.225209e-02
     vertex  6.661338e-16 -9.510565e-02  3.090170e-02
     vertex  6.661338e-16 -7.227949e-02  6.910626e-02
   endloop
 endfacet
 facet normal -1.000000e+00  0.000000e+00  0.000000e+00
   outer loop
     vertex  6.661338e-16 -9.909498e-02  1.342333e-02
     vertex  6.661338e-16 -9.749279e-02  2.225209e-02
     vertex  6.661338e-16 -7.227949e-02  6.910626e-02
   endloop
 endfacet
 facet normal -1.000000e+00  0.000000e+00  0.000000e+00
   outer loop
     vertex  6.661338e-16 -9.989931e-02  4.486483e-03
     vertex  6.661338e-16 -9.909498e-02  1.342333e-02
     vertex  6.661338e-16 -7.227949e-02  6.910626e-02
   endloop
 endfacet
 facet normal -1.000000e+00  0.000000e+00  0.000000e+00
   outer loop
     vertex  6.661338e-16 -9.989931e-02 -4.486483e-03
     vertex  6.661338e-16 -9.989931e-02  4.486483e-03
     vertex  6.661338e-16 -7.227949e-02  6.910626e-02
   endloop
 endfacet
 facet normal -1.000000e+00  0.000000e+00  0.000000e+00
   outer loop
     vertex  6.661338e-16 -9.909498e-02 -1.342333e-02
     vertex  6.661338e-16 -9.989931e-02 -4.486483e-03
     vertex  6.661338e-16 -7.227949e-02  6.910626e-02
   endloop
 endfacet
 facet normal -1.000000e+00  0.000000e+00  0.000000e+00
   outer loop
     vertex  6.661338e-16 -9.749279e-02 -2.225209e-02
     vertex  6.661338e-16 -9.909498e-02 -1.342333e-02
     vertex  6.661338e-16 -7.227949e-02  6.910626e-02
   endloop
 endfacet
 facet normal -1.000000e+00  0.000000e+00  0.000000e+00
   outer loop
     vertex  6.661338e-16 -9.510565e-02 -3.090170e-02
     vertex  6.661338e-16 -9.749279e-02 -2.225209e-02
     vertex  6.661338e-16 -7.227949e-02  6.910626e-02
   endloop
 endfacet
 facet normal -1.000000e+00  0.000000e+00  0.000000e+00
   outer loop
     vertex  6.661338e-16 -9.195278e-02 -3.930250e-02
     vertex  6.661338e-16 -9.510565e-02 -3.090170e-02
     vertex  6.661338e-16 -7.227949e-02  6.910626e-02
   endloop
 endfacet
 facet normal -1.000000e+00  0.000000e+00  0.000000e+00
   outer loop
     vertex  6.661338e-16 -8.805955e-02 -4.738687e-02
     vertex  6.661338e-16 -9.195278e-02 -3.930250e-02
     vertex  6.661338e-16 -7.227949e-02  6.910626e-02
   endloop
 endfacet
 facet normal -1.000000e+00  0.000000e+00  0.000000e+00
   outer loop
     vertex  6.661338e-16 -8.345733e-02 -5.508970e-02
     vertex  6.661338e-16 -8.805955e-02 -4.738687e-02
     vertex  6.661338e-16 -7.227949e-02  6.910626e-02
   endloop
 endfacet
 facet normal -1.000000e+00  0.000000e+00  0.000000e+00
   outer loop
     vertex  6.661338e-16 -7.818315e-02 -6.234898e-02
     vertex  6.661338e-16 -8.345733e-02 -5.508970e-02
     vertex  6.661338e-16 -7.227949e-02  6.910626e-02
   endloop
 endfacet
 facet normal -1.000000e+00  0.000000e+00  0.000000e+00
   outer loop
     vertex  6.661338e-16 -7.227949e-02 -6.910626e-02
     vertex  6.661338e-16 -7.818315e-02 -6.234898e-02
     vertex  6.661338e-16 -7.227949e-02  6.910626e-02
   endloop
 endfacet
 facet normal -1.000000e+00  0.000000e+00  0.000000e+00
   outer loop
     vertex  6.661338e-16 -6.579387e-02 -7.530715e-02
     vertex  6.661338e-16 -7.227949e-02 -6.910626e-02
     vertex  6.661338e-16 -7.227949e-02  6.910626e-02
   endloop
 endfacet
 facet normal -1.000000e+00  0.000000e+00  0.000000e+00
   outer loop
     vertex  6.661338e-16 -5.877853e-02 -8.090170e-02
     vertex  6.661338e-16 -6.579387e-02 -7.530715e-02
     vertex  6.661338e-16 -7.227949e-02  6.910626e-02
   endloop
 endfacet
 facet normal -1.000000e+00  0.000000e+00  0.000000e+00
   outer loop
     vertex  6.661338e-16 -5.128993e-02 -8.584488e-02
     vertex  6.661338e-16 -5.877853e-02 -8.090170e-02
     vertex  6.661338e-16 -7.227949e-02  6.910626e-02
   endloop
 endfacet
 facet normal -1.000000e+00  0.000000e+00  0.000000e+00
   outer loop
     vertex  6.661338e-16 -4.338837e-02 -9.009689e-02
     vertex  6.661338e-16 -5.128993e-02 -8.584488e-02
     vertex  6.661338e-16 -7.227949e-02  6.910626e-02
   endloop
 endfacet
 facet normal -1.000000e+00  0.000000e+00  0.000000e+00
   outer loop
     vertex  6.661338e-16 -3.513748e-02 -9.362349e-02
     vertex  6.661338e-16 -4.338837e-02 -9.009689e-02
     vertex  6.661338e-16 -7.227949e-02  6.910626e-02
   endloop
 endfacet
 facet normal -1.000000e+00  0.000000e+00  0.000000e+00
   outer loop
     vertex  6.661338e-16 -2.660368e-02 -9.639629e-02
     vertex  6.661338e-16 -3.513748e-02 -9.362349e-02
     vertex  6.661338e-16 -7.227949e-02  6.910626e-02
   endloop
 endfacet
 facet normal -1.000000e+00  0.000000e+00  0.000000e+00
   outer loop
     vertex  6.661338e-16 -1.785569e-02 -9.839296e-02
     vertex  6.661338e-16 -2.660368e-02 -9.639629e-02
     vertex  6.661338e-16 -7.227949e-02  6.910626e-02
   endloop
 endfacet
 facet normal -1.000000e+00  0.000000e+00  0.000000e+00
   outer loop
     vertex  6.661338e-16 -8.963931e-03 -9.959743e-02
     vertex  6.661338e-16 -1.785569e-02 -9.839296e-02
     vertex  6.661338e-16 -7.227949e-02  6.910626e-02
   endloop
 endfacet
 facet normal -1.000000e+00  0.000000e+00  0.000000e+00
   outer loop
     vertex  6.661338e-16 -1.224647e-17 -1.000000e-01
     vertex  6.661338e-16 -8.963931e-03 -9.959743e-02
     vertex  6.661338e-16 -7.227949e-02  6.910626e-02
   endloop
 endfacet
 facet normal -1.000000e+00 -0.000000e+00  0.000000e+00
   outer loop
     vertex  6.661338e-16  8.963931e-03 -9.959743e-02
     vertex  6.661338e-16 -1.224647e-17 -1.000000e-01
     vertex  6.661338e-16 -7.227949e-02  6.910626e-02
   endloop
 endfacet
 facet normal -1.000000e+00 -0.000000e+00  0.000000e+00
   outer loop
     vertex  6.661338e-16  1.785569e-02 -9.839296e-02
     vertex  6.661338e-16  8.963931e-03 -9.959743e-02
     vertex  6.661338e-16 -7.227949e-02  6.910626e-02
   endloop
 endfacet
 facet normal -1.000000e+00 -0.000000e+00  0.000000e+00
   outer loop
     vertex  6.661338e-16  2.660368e-02 -9.639629e-02
     vertex  6.661338e-16  1.785569e-02 -9.839296e-02
     vertex  6.661338e-16 -7.227949e-02  6.910626e-02
   endloop
 endfacet
 facet normal -1.000000e+00 -0.000000e+00  0.000000e+00
   outer loop
     vertex  6.661338e-16  3.513748e-02 -9.362349e-02
     vertex  6.661338e-16  2.660368e-02 -9.639629e-02
     vertex  6.661338e-16 -7.227949e-02  6.910626e-02
   endloop
 endfacet
 facet normal -1.000000e+00 -0.000000e+00  0.000000e+00
   outer loop
     vertex  6.661338e-16  4.338837e-02 -9.009689e-02
     vertex  6.661338e-16  3.513748e-02 -9.362349e-02
     vertex  6.661338e-16 -7.227949e-02  6.910626e-02
   endloop
 endfacet
 facet normal -1.000000e+00 -0.000000e+00  0.000000e+00
   outer loop
     vertex  6.661338e-16  5.128993e-02 -8.584488e-02
     vertex  6.661338e-16  4.338837e-02 -9.009689e-02
     vertex  6.661338e-16 -7.227949e-02  6.910626e-02
   endloop
 endfacet
 facet normal -1.000000e+00 -0.000000e+00  0.000000e+00
   outer loop
     vertex  6.661338e-16  5.877853e-02 -8.090170e-02
     vertex  6.661338e-16  5.128993e-02 -8.584488e-02
     vertex  6.661338e-16 -7.227949e-02  6.910626e-02
   endloop
 endfacet
 facet normal -1.000000e+00 -0.000000e+00  0.000000e+00
   outer loop
     vertex  6.661338e-16  6.579387e-02 -7.530715e-02
     vertex  6.661338e-16  5.877853e-02 -8.090170e-02
     vertex  6.661338e-16 -7.227949e-02  6.910626e-02
   endloop
 endfacet
 facet normal -1.000000e+00 -0.000000e+00  0.000000e+00
   outer loop
     vertex  6.661338e-16  7.227949e-02 -6.910626e-02
     vertex  6.661338e-16  6.579387e-02 -7.530715e-02
     vertex  6.661338e-16 -7.227949e-02  6.910626e-02
   endloop
 endfacet
 facet normal -1.000000e+00 -0.000000e+00  0.000000e+00
   outer loop
     vertex  6.661338e-16  7.818315e-02 -6.234898e-02
     vertex  6.661338e-16  7.227949e-02 -6.910626e-02
     vertex  6.661338e-16 -7.227949e-02  6.910626e-02
   endloop
 endfacet
 facet normal -1.000000e+00 -0.000000e+00  0.000000e+00
   outer loop
     vertex  6.661338e-16  8.345733e-02 -5.508970e-02
     vertex  6.661338e-16  7.818315e-02 -6.234898e-02
     vertex  6.661338e-16 -7.227949e-02  6.910626e-02
   endloop
 endfacet
 facet normal -1.000000e+00 -0.000000e+00  0.000000e+00
   outer loop
     vertex  6.661338e-16  8.805955e-02 -4.738687e-02
     vertex  6.661338e-16  8.345733e-02 -5.508970e-02
     vertex  6.661338e-16 -7.227949e-02  6.910626e-02
   endloop
 endfacet
 facet normal -1.000000e+00 -0.000000e+00  0.000000e+00
   outer loop
     vertex  6.661338e-16  9.195278e-02 -3.930250e-02
     vertex  6.661338e-16  8.805955e-02 -4.738687e-02
     vertex  6.661338e-16 -7.227949e-02  6.910626e-02
   endloop
 endfacet
 facet normal -1.000000e+00 -0.000000e+00  0.000000e+00
   outer loop
     vertex  6.661338e-16  9.510565e-02 -3.090170e-02
     vertex  6.661338e-16  9.195278e-02 -3.930250e-02
     vertex  6.661338e-16 -7.227949e-02  6.910626e-02
   endloop
 endfacet
 facet normal -1.000000e+00 -0.000000e+00  0.000000e+00
   outer loop
     vertex  6.661338e-16  9.749279e-02 -2.225209e-02
     vertex  6.661338e-16  9.510565e-02 -3.090170e-02
     vertex  6.661338e-16 -7.227949e-02  6.910626e-02
   endloop
 endfacet
 facet normal -1.000000e+00 -0.000000e+00  0.000000e+00
   outer loop
     vertex  6.661338e-16  9.909498e-02 -1.342333e-02
     vertex  6.661338e-16  9.749279e-02 -2.225209e-02
     vertex  6.661338e-16 -7.227949e-02  6.910626e-02
   endloop
 endfacet
 facet normal -1.000000e+00 -0.000000e+00  0.000000e+00
   outer loop
     vertex  6.661338e-16  9.989931e-02 -4.486483e-03
     vertex  6.661338e-16  9.909498e-02 -1.342333e-02
     vertex  6.661338e-16 -7.227949e-02  6.910626e-02
   endloop
 endfacet
 facet normal -1.000000e+00 -0.000000e+00  0.000000e+00
   outer loop
     vertex  6.661338e-16  9.989931e-02  4.486483e-03
     vertex  6.661338e-16  9.989931e-02 -4.486483e-03
     vertex  6.661338e-16 -7.227949e-02  6.910626e-02
   endloop
 endfacet
 facet normal -1.000000e+00 -0.000000e+00 -0.000000e+00
   outer loop
     vertex  6.661338e-16  9.909498e-02  1.342333e-02
     vertex  6.661338e-16  9.989931e-02  4.486483e-03
     vertex  6.661338e-16 -7.227949e-02  6.910626e-02
   endloop
 endfacet
 facet normal -1.000000e+00 -0.000000e+00 -0.000000e+00
   outer loop
     vertex  6.661338e-16  9.749279e-02  2.225209e-02
     vertex  6.661338e-16  9.909498e-02  1.342333e-02
     vertex  6.661338e-16 -7.227949e-02  6.910626e-02
   endloop
 endfacet
 facet normal -1.000000e+00 -0.000000e+00 -0.000000e+00
   outer loop
     vertex  6.661338e-16  9.510565e-02  3.090170e-02
     vertex  6.661338e-16  9.749279e-02  2.225209e-02
     vertex  6.661338e-16 -7.227949e-02  6.910626e-02
   endloop
 endfacet
 facet normal -1.000000e+00 -0.000000e+00 -0.000000e+00
   outer loop
     vertex  6.661338e-16  9.195278e-02  3.930250e-02
     vertex  6.661338e-16  9.510565e-02  3.090170e-02
     vertex  6.661338e-16 -7.227949e-02  6.910626e-02
   endloop
 endfacet
 facet normal -1.000000e+00 -0.000000e+00 -0.000000e+00
   outer loop
     vertex  6.661338e-16  8.805955e-02  4.738687e-02
     vertex  6.661338e-16  9.195278e-02  3.930250e-02
     vertex  6.661338e-16 -7.227949e-02  6.910626e-02
   endloop
 endfacet
 facet normal -1.000000e+00 -0.000000e+00 -0.000000e+00
   outer loop
     vertex  6.661338e-16  8.345733e-02  5.508970e-02
     vertex  6.661338e-16  8.805955e-02  4.738687e-02
     vertex  6.661338e-16 -7.227949e-02  6.910626e-02
   endloop
 endfacet
 facet normal -1.000000e+00 -0.000000e+00 -0.000000e+00
   outer loop
     vertex  6.661338e-16  7.818315e-02  6.234898e-02
     vertex  6.661338e-16  8.345733e-02  5.508970e-02
     vertex  6.661338e-16 -7.227949e-02  6.910626e-02
   endloop
 endfacet
 facet normal -1.000000e+00 -0.000000e+00 -0.000000e+00
   outer loop
     vertex  6.661338e-16  7.227949e-02  6.910626e-02
     vertex  6.661338e-16  7.818315e-02  6.234898e-02
     vertex  6.661338e-16 -7.227949e-02  6.910626e-02
   endloop
 endfacet
 facet normal -1.000000e+00 -0.000000e+00 -0.000000e+00
   outer loop
     vertex  6.661338e-16  6.579387e-02  7.530715e-02
     vertex  6.661338e-16  7.227949e-02  6.910626e-02
     vertex  6.661338e-16 -7.227949e-02  6.910626e-02
   endloop
 endfacet
 facet normal -1.000000e+00  0.000000e+00 -0.000000e+00
   outer loop
     vertex  6.661338e-16  5.877853e-02  8.090170e-02
     vertex  6.661338e-16  6.579387e-02  7.530715e-02
     vertex  6.661338e-16 -7.227949e-02  6.910626e-02
   endloop
 endfacet
 facet normal -1.000000e+00  0.000000e+00 -0.000000e+00
   outer loop
     vertex  6.661338e-16  5.128993e-02  8.584488e-02
     vertex  6.661338e-16  5.877853e-02  8.090170e-02
     vertex  6.661338e-16 -7.227949e-02  6.910626e-02
   endloop
 endfacet
 facet normal -1.000000e+00  0.000000e+00 -0.000000e+00
   outer loop
     vertex  6.661338e-16  4.338837e-02  9.009689e-02
     vertex  6.661338e-16  5.128993e-02  8.584488e-02
     vertex  6.661338e-16 -7.227949e-02  6.910626e-02
   endloop
 endfacet
 facet normal -1.000000e+00  0.000000e+00 -0.000000e+00
   outer loop
     vertex  6.661338e-16  3.513748e-02  9.362349e-02
     vertex  6.661338e-16  4.338837e-02  9.009689e-02
     vertex  6.661338e-16 -7.227949e-02  6.910626e-02
   endloop
 endfacet
 facet normal -1.000000e+00  0.000000e+00 -0.000000e+00
   outer loop
     vertex  6.661338e-16  2.660368e-02  9.639629e-02
     vertex  6.661338e-16  3.513748e-02  9.362349e-02
     vertex  6.661338e-16 -7.227949e-02  6.910626e-02
   endloop
 endfacet
 facet normal -1.000000e+00  0.000000e+00 -0.000000e+00
   outer loop
     vertex  6.661338e-16  1.785569e-02  9.839296e-02
     vertex  6.661338e-16  2.660368e-02  9.639629e-02
     vertex  6.661338e-16 -7.227949e-02  6.910626e-02
   endloop
 endfacet
 facet normal -1.000000e+00  0.000000e+00 -0.000000e+00
   outer loop
     vertex  6.661338e-16  8.963931e-03  9.959743e-02
     vertex  6.661338e-16  1.785569e-02  9.839296e-02
     vertex  6.661338e-16 -7.227949e-02  6.910626e-02
   endloop
 endfacet
 facet normal -1.000000e+00  0.000000e+00 -0.000000e+00
   outer loop
     vertex  6.661338e-16  2.449294e-17  1.000000e-01
     vertex  6.661338e-16  8.963931e-03  9.959743e-02
     vertex  6.661338e-16 -7.227949e-02  6.910626e-02
   endloop
 endfacet
endsolid
