solid
 facet normal -0.000000e+00 -1.000000e+00 -0.000000e+00
   outer loop
     vertex  2.504482e+00 -2.000000e+00  4.979871e-02
     vertex  2.500000e+00 -2.000000e+00  5.000000e-02
     vertex  2.536140e+00 -2.000000e+00  3.455313e-02
   endloop
 endfacet
 facet normal -0.000000e+00 -1.000000e+00 -0.000000e+00
   outer loop
     vertex  2.508928e+00 -2.000000e+00  4.919648e-02
     vertex  2.504482e+00 -2.000000e+00  4.979871e-02
     vertex  2.536140e+00 -2.000000e+00  3.455313e-02
   endloop
 endfacet
 facet normal -0.000000e+00 -1.000000e+00 -0.000000e+00
   outer loop
     vertex  2.513302e+00 -2.000000e+00  4.819814e-02
     vertex  2.508928e+00 -2.000000e+00  4.919648e-02
     vertex  2.536140e+00 -2.000000e+00  3.455313e-02
   endloop
 endfacet
 facet normal -0.000000e+00 -1.000000e+00 -0.000000e+00
   outer loop
     vertex  2.517569e+00 -2.000000e+00  4.681174e-02
     vertex  2.513302e+00 -2.000000e+00  4.819814e-02
     vertex  2.536140e+00 -2.000000e+00  3.455313e-02
   endloop
 endfacet
 facet normal -0.000000e+00 -1.000000e+00 -0.000000e+00
   outer loop
     vertex  2.521694e+00 -2.000000e+00  4.504844e-02
     vertex  2.517569e+00 -2.000000e+00  4.681174e-02
     vertex  2.536140e+00 -2.000000e+00  3.455313e-02
   endloop
 endfacet
 facet normal -0.000000e+00 -1.000000e+00 -0.000000e+00
   outer loop
     vertex  2.525645e+00 -2.000000e+00  4.292244e-02
     vertex  2.521694e+00 -2.000000e+00  4.504844e-02
     vertex  2.536140e+00 -2.000000e+00  3.455313e-02
   endloop
 endfacet
 facet normal -0.000000e+00 -1.000000e+00 -0.000000e+00
   outer loop
     vertex  2.529389e+00 -2.000000e+00  4.045085e-02
     vertex  2.525645e+00 -2.000000e+00  4.292244e-02
     vertex  2.536140e+00 -2.000000e+00  3.455313e-02
   endloop
 endfacet
 facet normal -0.000000e+00 -1.000000e+00 -0.000000e+00
   outer loop
     vertex  2.532897e+00 -2.000000e+00  3.765357e-02
     vertex  2.529389e+00 -2.000000e+00  4.045085e-02
     vertex  2.536140e+00 -2.000000e+00  3.455313e-02
   endloop
 endfacet
 facet normal  0.000000e+00 -1.000000e+00  0.000000e+00
   outer loop
     vertex  2.541729e+00 -2.000000e+00  2.754485e-02
     vertex  2.539092e+00 -2.000000e+00  3.117449e-02
     vertex  2.536140e+00 -2.000000e+00  3.455313e-02
   endloop
 endfacet
 facet normal  0.000000e+00 -1.000000e+00  0.000000e+00
   outer loop
     vertex  2.544030e+00 -2.000000e+00  2.369343e-02
     vertex  2.541729e+00 -2.000000e+00  2.754485e-02
     vertex  2.536140e+00 -2.000000e+00  3.455313e-02
   endloop
 endfacet
 facet normal  0.000000e+00 -1.000000e+00  0.000000e+00
   outer loop
     vertex  2.545976e+00 -2.000000e+00  1.965125e-02
     vertex  2.544030e+00 -2.000000e+00  2.369343e-02
     vertex  2.536140e+00 -2.000000e+00  3.455313e-02
   endloop
 endfacet
 facet normal  0.000000e+00 -1.000000e+00  0.000000e+00
   outer loop
     vertex  2.547553e+00 -2.000000e+00  1.545085e-02
     vertex  2.545976e+00 -2.000000e+00  1.965125e-02
     vertex  2.536140e+00 -2.000000e+00  3.455313e-02
   endloop
 endfacet
 facet normal  0.000000e+00 -1.000000e+00  0.000000e+00
   outer loop
     vertex  2.548746e+00 -2.000000e+00  1.112605e-02
     vertex  2.547553e+00 -2.000000e+00  1.545085e-02
     vertex  2.536140e+00 -2.000000e+00  3.455313e-02
   endloop
 endfacet
 facet normal  0.000000e+00 -1.000000e+00  0.000000e+00
   outer loop
     vertex  2.549547e+00 -2.000000e+00  6.711663e-03
     vertex  2.548746e+00 -2.000000e+00  1.112605e-02
     vertex  2.536140e+00 -2.000000e+00  3.455313e-02
   endloop
 endfacet
 facet normal  0.000000e+00 -1.000000e+00  0.000000e+00
   outer loop
     vertex  2.549950e+00 -2.000000e+00  2.243242e-03
     vertex  2.549547e+00 -2.000000e+00  6.711663e-03
     vertex  2.536140e+00 -2.000000e+00  3.455313e-02
   endloop
 endfacet
 facet normal  0.000000e+00 -1.000000e+00  0.000000e+00
   outer loop
     vertex  2.549950e+00 -2.000000e+00 -2.243242e-03
     vertex  2.549950e+00 -2.000000e+00  2.243242e-03
     vertex  2.536140e+00 -2.000000e+00  3.455313e-02
   endloop
 endfacet
 facet normal  0.000000e+00 -1.000000e+00  0.000000e+00
   outer loop
     vertex  2.549547e+00 -2.000000e+00 -6.711663e-03
     vertex  2.549950e+00 -2.000000e+00 -2.243242e-03
     vertex  2.536140e+00 -2.000000e+00  3.455313e-02
   endloop
 endfacet
 facet normal  0.000000e+00 -1.000000e+00  0.000000e+00
   outer loop
     vertex  2.548746e+00 -2.000000e+00 -1.112605e-02
     vertex  2.549547e+00 -2.000000e+00 -6.711663e-03
     vertex  2.536140e+00 -2.000000e+00  3.455313e-02
   endloop
 endfacet
 facet normal  0.000000e+00 -1.000000e+00  0.000000e+00
   outer loop
     vertex  2.547553e+00 -2.000000e+00 -1.545085e-02
     vertex  2.548746e+00 -2.000000e+00 -1.112605e-02
     vertex  2.536140e+00 -2.000000e+00  3.455313e-02
   endloop
 endfacet
 facet normal  0.000000e+00 -1.000000e+00  0.000000e+00
   outer loop
     vertex  2.545976e+00 -2.000000e+00 -1.965125e-02
     vertex  2.547553e+00 -2.000000e+00 -1.545085e-02
     vertex  2.536140e+00 -2.000000e+00  3.455313e-02
   endloop
 endfacet
 facet normal  0.000000e+00 -1.000000e+00  0.000000e+00
   outer loop
     vertex  2.544030e+00 -2.000000e+00 -2.369343e-02
     vertex  2.545976e+00 -2.000000e+00 -1.965125e-02
     vertex  2.536140e+00 -2.000000e+00  3.455313e-02
   endloop
 endfacet
 facet normal  0.000000e+00 -1.000000e+00  0.000000e+00
   outer loop
     vertex  2.541729e+00 -2.000000e+00 -2.754485e-02
     vertex  2.544030e+00 -2.000000e+00 -2.369343e-02
     vertex  2.536140e+00 -2.000000e+00  3.455313e-02
   endloop
 endfacet
 facet normal  0.000000e+00 -1.000000e+00  0.000000e+00
   outer loop
     vertex  2.539092e+00 -2.000000e+00 -3.117449e-02
     vertex  2.541729e+00 -2.000000e+00 -2.754485e-02
     vertex  2.536140e+00 -2.000000e+00  3.455313e-02
   endloop
 endfacet
 facet normal  0.000000e+00 -1.000000e+00  0.000000e+00
   outer loop
     vertex  2.536140e+00 -2.000000e+00 -3.455313e-02
     vertex  2.539092e+00 -2.000000e+00 -3.117449e-02
     vertex  2.536140e+00 -2.000000e+00  3.455313e-02
   endloop
 endfacet
 facet normal  0.000000e+00 -1.000000e+00  0.000000e+00
   outer loop
     vertex  2.532897e+00 -2.000000e+00 -3.765357e-02
     vertex  2.536140e+00 -2.000000e+00 -3.455313e-02
     vertex  2.536140e+00 -2.000000e+00  3.455313e-02
   endloop
 endfacet
 facet normal  0.000000e+00 -1.000000e+00  0.000000e+00
   outer loop
     vertex  2.529389e+00 -2.000000e+00 -4.045085e-02
     vertex  2.532897e+00 -2.000000e+00 -3.765357e-02
     vertex  2.536140e+00 -2.000000e+00  3.455313e-02
   endloop
 endfacet
 facet normal  0.000000e+00 -1.000000e+00  0.000000e+00
   outer loop
     vertex  2.525645e+00 -2.000000e+00 -4.292244e-02
     vertex  2.529389e+00 -2.000000e+00 -4.045085e-02
     vertex  2.536140e+00 -2.000000e+00  3.455313e-02
   endloop
 endfacet
 facet normal  0.000000e+00 -1.000000e+00  0.000000e+00
   outer loop
     vertex  2.521694e+00 -2.000000e+00 -4.504844e-02
     vertex  2.525645e+00 -2.000000e+00 -4.292244e-02
     vertex  2.536140e+00 -2.000000e+00  3.455313e-02
   endloop
 endfacet
 facet normal  0.000000e+00 -1.000000e+00  0.000000e+00
   outer loop
     vertex  2.517569e+00 -2.000000e+00 -4.681174e-02
     vertex  2.521694e+00 -2.000000e+00 -4.504844e-02
     vertex  2.536140e+00 -2.000000e+00  3.455313e-02
   endloop
 endfacet
 facet normal  0.000000e+00 -1.000000e+00  0.000000e+00
   outer loop
     vertex  2.513302e+00 -2.000000e+00 -4.819814e-02
     vertex  2.517569e+00 -2.000000e+00 -4.681174e-02
     vertex  2.536140e+00 -2.000000e+00  3.455313e-02
   endloop
 endfacet
 facet normal  0.000000e+00 -1.000000e+00  0.000000e+00
   outer loop
     vertex  2.508928e+00 -2.000000e+00 -4.919648e-02
     vertex  2.513302e+00 -2.000000e+00 -4.819814e-02
     vertex  2.536140e+00 -2.000000e+00  3.455313e-02
   endloop
 endfacet
 facet normal  0.000000e+00 -1.000000e+00  0.000000e+00
   outer loop
     vertex  2.504482e+00 -2.000000e+00 -4.979871e-02
     vertex  2.508928e+00 -2.000000e+00 -4.919648e-02
     vertex  2.536140e+00 -2.000000e+00  3.455313e-02
   endloop
 endfacet
 facet normal  0.000000e+00 -1.000000e+00  0.000000e+00
   outer loop
     vertex  2.500000e+00 -2.000000e+00 -5.000000e-02
     vertex  2.504482e+00 -2.000000e+00 -4.979871e-02
     vertex  2.536140e+00 -2.000000e+00  3.455313e-02
   endloop
 endfacet
 facet normal  0.000000e+00 -1.000000e+00  0.000000e+00
   outer loop
     vertex  2.495518e+00 -2.000000e+00 -4.979871e-02
     vertex  2.500000e+00 -2.000000e+00 -5.000000e-02
     vertex  2.536140e+00 -2.000000e+00  3.455313e-02
   endloop
 endfacet
 facet normal  0.000000e+00 -1.000000e+00  0.000000e+00
   outer loop
     vertex  2.491072e+00 -2.000000e+00 -4.919648e-02
     vertex  2.495518e+00 -2.000000e+00 -4.979871e-02
     vertex  2.536140e+00 -2.000000e+00  3.455313e-02
   endloop
 endfacet
 facet normal  0.000000e+00 -1.000000e+00  0.000000e+00
   outer loop
     vertex  2.486698e+00 -2.000000e+00 -4.819814e-02
     vertex  2.491072e+00 -2.000000e+00 -4.919648e-02
     vertex  2.536140e+00 -2.000000e+00  3.455313e-02
   endloop
 endfacet
 facet normal  0.000000e+00 -1.000000e+00  0.000000e+00
   outer loop
     vertex  2.482431e+00 -2.000000e+00 -4.681174e-02
     vertex  2.486698e+00 -2.000000e+00 -4.819814e-02
     vertex  2.536140e+00 -2.000000e+00  3.455313e-02
   endloop
 endfacet
 facet normal  0.000000e+00 -1.000000e+00  0.000000e+00
   outer loop
     vertex  2.478306e+00 -2.000000e+00 -4.504844e-02
     vertex  2.482431e+00 -2.000000e+00 -4.681174e-02
     vertex  2.536140e+00 -2.000000e+00  3.455313e-02
   endloop
 endfacet
 facet normal  0.000000e+00 -1.000000e+00  0.000000e+00
   outer loop
     vertex  2.474355e+00 -2.000000e+00 -4.292244e-02
     vertex  2.478306e+00 -2.000000e+00 -4.504844e-02
     vertex  2.536140e+00 -2.000000e+00  3.455313e-02
   endloop
 endfacet
 facet normal  0.000000e+00 -1.000000e+00  0.000000e+00
   outer loop
     vertex  2.470611e+00 -2.000000e+00 -4.045085e-02
     vertex  2.474355e+00 -2.000000e+00 -4.292244e-02
     vertex  2.536140e+00 -2.000000e+00  3.455313e-02
   endloop
 endfacet
 facet normal  0.000000e+00 -1.000000e+00  0.000000e+00
   outer loop
     vertex  2.467103e+00 -2.000000e+00 -3.765357e-02
     vertex  2.470611e+00 -2.000000e+00 -4.045085e-02
     vertex  2.536140e+00 -2.000000e+00  3.455313e-02
   endloop
 endfacet
 facet normal  0.000000e+00 -1.000000e+00  0.000000e+00
   outer loop
     vertex  2.463860e+00 -2.000000e+00 -3.455313e-02
     vertex  2.467103e+00 -2.000000e+00 -3.765357e-02
     vertex  2.536140e+00 -2.000000e+00  3.455313e-02
   endloop
 endfacet
 facet normal  0.000000e+00 -1.000000e+00  0.000000e+00
   outer loop
     vertex  2.460908e+00 -2.000000e+00 -3.117449e-02
     vertex  2.463860e+00 -2.000000e+00 -3.455313e-02
     vertex  2.536140e+00 -2.000000e+00  3.455313e-02
   endloop
 endfacet
 facet normal  0.000000e+00 -1.000000e+00  0.000000e+00
   outer loop
     vertex  2.458271e+00 -2.000000e+00 -2.754485e-02
     vertex  2.460908e+00 -2.000000e+00 -3.117449e-02
     vertex  2.536140e+00 -2.000000e+00  3.455313e-02
   endloop
 endfacet
 facet normal  0.000000e+00 -1.000000e+00  0.000000e+00
   outer loop
     vertex  2.455970e+00 -2.000000e+00 -2.369343e-02
     vertex  2.458271e+00 -2.000000e+00 -2.754485e-02
     vertex  2.536140e+00 -2.000000e+00  3.455313e-02
   endloop
 endfacet
 facet normal  0.000000e+00 -1.000000e+00  0.000000e+00
   outer loop
     vertex  2.454024e+00 -2.000000e+00 -1.965125e-02
     vertex  2.455970e+00 -2.000000e+00 -2.369343e-02
     vertex  2.536140e+00 -2.000000e+00  3.455313e-02
   endloop
 endfacet
 facet normal  0.000000e+00 -1.000000e+00  0.000000e+00
   outer loop
     vertex  2.452447e+00 -2.000000e+00 -1.545085e-02
     vertex  2.454024e+00 -2.000000e+00 -1.965125e-02
     vertex  2.536140e+00 -2.000000e+00  3.455313e-02
   endloop
 endfacet
 facet normal  0.000000e+00 -1.000000e+00  0.000000e+00
   outer loop
     vertex  2.451254e+00 -2.000000e+00 -1.112605e-02
     vertex  2.452447e+00 -2.000000e+00 -1.545085e-02
     vertex  2.536140e+00 -2.000000e+00  3.455313e-02
   endloop
 endfacet
 facet normal  0.000000e+00 -1.000000e+00  0.000000e+00
   outer loop
     vertex  2.450453e+00 -2.000000e+00 -6.711663e-03
     vertex  2.451254e+00 -2.000000e+00 -1.112605e-02
     vertex  2.536140e+00 -2.000000e+00  3.455313e-02
   endloop
 endfacet
 facet normal  0.000000e+00 -1.000000e+00  0.000000e+00
   outer loop
     vertex  2.450050e+00 -2.000000e+00 -2.243242e-03
     vertex  2.450453e+00 -2.000000e+00 -6.711663e-03
     vertex  2.536140e+00 -2.000000e+00  3.455313e-02
   endloop
 endfacet
 facet normal  0.000000e+00 -1.000000e+00  0.000000e+00
   outer loop
     vertex  2.450050e+00 -2.000000e+00  2.243242e-03
     vertex  2.450050e+00 -2.000000e+00 -2.243242e-03
     vertex  2.536140e+00 -2.000000e+00  3.455313e-02
   endloop
 endfacet
 facet normal  0.000000e+00 -1.000000e+00 -0.000000e+00
   outer loop
     vertex  2.450453e+00 -2.000000e+00  6.711663e-03
     vertex  2.450050e+00 -2.000000e+00  2.243242e-03
     vertex  2.536140e+00 -2.000000e+00  3.455313e-02
   endloop
 endfacet
 facet normal  0.000000e+00 -1.000000e+00 -0.000000e+00
   outer loop
     vertex  2.451254e+00 -2.000000e+00  1.112605e-02
     vertex  2.450453e+00 -2.000000e+00  6.711663e-03
     vertex  2.536140e+00 -2.000000e+00  3.455313e-02
   endloop
 endfacet
 facet normal  0.000000e+00 -1.000000e+00 -0.000000e+00
   outer loop
     vertex  2.452447e+00 -2.000000e+00  1.545085e-02
     vertex  2.451254e+00 -2.000000e+00  1.112605e-02
     vertex  2.536140e+00 -2.000000e+00  3.455313e-02
   endloop
 endfacet
 facet normal  0.000000e+00 -1.000000e+00 -0.000000e+00
   outer loop
     vertex  2.454024e+00 -2.000000e+00  1.965125e-02
     vertex  2.452447e+00 -2.000000e+00  1.545085e-02
     vertex  2.536140e+00 -2.000000e+00  3.455313e-02
   endloop
 endfacet
 facet normal  0.000000e+00 -1.000000e+00 -0.000000e+00
   outer loop
     vertex  2.455970e+00 -2.000000e+00  2.369343e-02
     vertex  2.454024e+00 -2.000000e+00  1.965125e-02
     vertex  2.536140e+00 -2.000000e+00  3.455313e-02
   endloop
 endfacet
 facet normal  0.000000e+00 -1.000000e+00 -0.000000e+00
   outer loop
     vertex  2.458271e+00 -2.000000e+00  2.754485e-02
     vertex  2.455970e+00 -2.000000e+00  2.369343e-02
     vertex  2.536140e+00 -2.000000e+00  3.455313e-02
   endloop
 endfacet
 facet normal  0.000000e+00 -1.000000e+00 -0.000000e+00
   outer loop
     vertex  2.460908e+00 -2.000000e+00  3.117449e-02
     vertex  2.458271e+00 -2.000000e+00  2.754485e-02
     vertex  2.536140e+00 -2.000000e+00  3.455313e-02
   endloop
 endfacet
 facet normal  0.000000e+00 -1.000000e+00 -0.000000e+00
   outer loop
     vertex  2.463860e+00 -2.000000e+00  3.455313e-02
     vertex  2.460908e+00 -2.000000e+00  3.117449e-02
     vertex  2.536140e+00 -2.000000e+00  3.455313e-02
   endloop
 endfacet
 facet normal  0.000000e+00 -1.000000e+00 -0.000000e+00
   outer loop
     vertex  2.467103e+00 -2.000000e+00  3.765357e-02
     vertex  2.463860e+00 -2.000000e+00  3.455313e-02
     vertex  2.536140e+00 -2.000000e+00  3.455313e-02
   endloop
 endfacet
 facet normal  0.000000e+00 -1.000000e+00 -0.000000e+00
   outer loop
     vertex  2.470611e+00 -2.000000e+00  4.045085e-02
     vertex  2.467103e+00 -2.000000e+00  3.765357e-02
     vertex  2.536140e+00 -2.000000e+00  3.455313e-02
   endloop
 endfacet
 facet normal  0.000000e+00 -1.000000e+00 -0.000000e+00
   outer loop
     vertex  2.474355e+00 -2.000000e+00  4.292244e-02
     vertex  2.470611e+00 -2.000000e+00  4.045085e-02
     vertex  2.536140e+00 -2.000000e+00  3.455313e-02
   endloop
 endfacet
 facet normal  0.000000e+00 -1.000000e+00 -0.000000e+00
   outer loop
     vertex  2.478306e+00 -2.000000e+00  4.504844e-02
     vertex  2.474355e+00 -2.000000e+00  4.292244e-02
     vertex  2.536140e+00 -2.000000e+00  3.455313e-02
   endloop
 endfacet
 facet normal  0.000000e+00 -1.000000e+00 -0.000000e+00
   outer loop
     vertex  2.482431e+00 -2.000000e+00  4.681174e-02
     vertex  2.478306e+00 -2.000000e+00  4.504844e-02
     vertex  2.536140e+00 -2.000000e+00  3.455313e-02
   endloop
 endfacet
 facet normal  0.000000e+00 -1.000000e+00 -0.000000e+00
   outer loop
     vertex  2.486698e+00 -2.000000e+00  4.819814e-02
     vertex  2.482431e+00 -2.000000e+00  4.681174e-02
     vertex  2.536140e+00 -2.000000e+00  3.455313e-02
   endloop
 endfacet
 facet normal  0.000000e+00 -1.000000e+00 -0.000000e+00
   outer loop
     vertex  2.491072e+00 -2.000000e+00  4.919648e-02
     vertex  2.486698e+00 -2.000000e+00  4.819814e-02
     vertex  2.536140e+00 -2.000000e+00  3.455313e-02
   endloop
 endfacet
 facet normal  0.000000e+00 -1.000000e+00 -0.000000e+00
   outer loop
     vertex  2.495518e+00 -2.000000e+00  4.979871e-02
     vertex  2.491072e+00 -2.000000e+00  4.919648e-02
     vertex  2.536140e+00 -2.000000e+00  3.455313e-02
   endloop
 endfacet
 facet normal  0.000000e+00 -1.000000e+00 -0.000000e+00
   outer loop
     vertex  2.500000e+00 -2.000000e+00  5.000000e-02
     vertex  2.495518e+00 -2.000000e+00  4.979871e-02
     vertex  2.536140e+00 -2.000000e+00  3.455313e-02
   endloop
 endfacet
endsolid
